<?xml version="1.0" standalone="no"?>
<!DOCTYPE svg PUBLIC "-//W3C//DTD SVG 20010904//EN"
 "http://www.w3.org/TR/2001/REC-SVG-20010904/DTD/svg10.dtd">
<svg version="1.0" xmlns="http://www.w3.org/2000/svg"
 width="1009.000000pt" height="1009.000000pt" viewBox="0 0 1009.000000 1009.000000"
 preserveAspectRatio="xMidYMid meet">
<metadata>
Created by potrace 1.14, written by Peter Selinger 2001-2017
</metadata>
<g transform="translate(0.000000,1009.000000) scale(0.100000,-0.100000)"
fill="#000000" stroke="none">
<path d="M4208 9952 c-42 -20 -75 -42 -73 -48 2 -6 -7 -10 -21 -8 -13 1 -22
-1 -19 -6 3 -4 -10 -14 -28 -21 -17 -7 -34 -15 -37 -18 -3 -3 -26 -17 -52 -31
-27 -13 -48 -28 -48 -33 0 -4 -4 -6 -9 -3 -5 3 -14 -1 -21 -9 -7 -8 -21 -15
-32 -15 -10 0 -21 -7 -25 -16 -3 -8 -12 -13 -19 -10 -8 3 -14 2 -14 -3 0 -5
-19 -18 -42 -30 -24 -12 -56 -30 -73 -40 -81 -49 -122 -73 -147 -82 -16 -6
-25 -15 -22 -20 3 -5 -2 -6 -10 -3 -9 3 -16 2 -16 -4 0 -5 -11 -13 -25 -16
-16 -4 -23 -11 -19 -18 5 -7 3 -8 -6 -3 -8 5 -18 1 -27 -10 -7 -11 -13 -16
-13 -12 0 4 -11 0 -25 -9 -14 -9 -25 -14 -25 -10 0 3 -9 -3 -20 -14 -11 -11
-25 -20 -31 -20 -5 0 -8 -4 -5 -9 4 -5 -3 -7 -14 -4 -12 3 -22 -1 -26 -11 -3
-9 -10 -13 -15 -10 -5 3 -9 0 -9 -6 0 -6 -4 -9 -9 -6 -5 3 -14 -1 -21 -9 -7
-8 -19 -15 -26 -15 -8 0 -14 -5 -14 -11 0 -5 -5 -7 -10 -4 -6 3 -12 0 -15 -7
-3 -8 -15 -15 -27 -15 -12 -1 -26 -9 -30 -18 -5 -8 -13 -13 -17 -10 -5 2 -14
-2 -21 -10 -7 -8 -16 -12 -21 -9 -5 3 -9 0 -9 -5 0 -6 -7 -11 -15 -11 -8 0
-15 -4 -15 -8 0 -4 -16 -14 -35 -21 -19 -7 -35 -17 -35 -22 0 -6 -4 -8 -9 -4
-6 3 -14 -2 -19 -11 -5 -9 -13 -16 -18 -16 -17 -1 -39 -12 -81 -40 -24 -16
-43 -25 -43 -21 0 4 -4 3 -8 -2 -4 -6 -28 -21 -54 -35 -26 -13 -45 -27 -42
-31 2 -4 -1 -11 -7 -15 -8 -4 -9 -3 -5 4 11 17 -9 15 -24 -3 -7 -8 -21 -15
-32 -15 -10 0 -16 -4 -13 -10 5 -9 -1 -12 -21 -9 -4 0 -10 -3 -13 -9 -3 -5
-19 -16 -36 -24 -16 -8 -29 -20 -27 -28 3 -11 0 -11 -12 -1 -13 11 -17 10 -25
-10 -5 -13 -10 -19 -10 -12 -1 18 -31 4 -32 -16 0 -11 -2 -12 -6 -3 -4 10 -12
7 -31 -10 -14 -13 -22 -16 -18 -8 6 12 5 12 -6 -1 -14 -16 -48 -33 -60 -31 -5
1 -8 -5 -8 -13 0 -8 -3 -14 -7 -13 -15 4 -53 -13 -53 -23 0 -6 -5 -7 -10 -4
-6 3 -13 0 -16 -9 -3 -8 -12 -12 -20 -9 -8 3 -14 0 -14 -5 0 -11 -38 -28 -54
-24 -5 2 -6 -4 -3 -11 3 -8 0 -14 -6 -13 -20 1 -107 -46 -101 -55 3 -5 -1 -6
-9 -3 -8 3 -20 -2 -27 -11 -7 -8 -19 -15 -26 -15 -8 0 -14 -5 -14 -10 0 -6 -3
-9 -7 -8 -10 2 -46 -13 -53 -22 -3 -3 -21 -14 -41 -23 -20 -9 -42 -23 -49 -32
-7 -8 -16 -12 -21 -9 -5 3 -9 0 -9 -6 0 -6 -4 -9 -9 -5 -6 3 -14 -3 -20 -12
-5 -10 -12 -17 -15 -16 -11 5 -36 -9 -31 -17 3 -5 -4 -6 -15 -3 -11 3 -20 1
-20 -5 0 -5 -22 -19 -50 -31 -27 -12 -48 -27 -46 -34 1 -6 1 -9 -1 -5 -3 4
-24 -3 -48 -14 -24 -12 -42 -25 -39 -30 3 -5 2 -7 -3 -6 -16 4 -51 -13 -57
-27 -3 -8 -12 -12 -21 -9 -8 3 -15 1 -15 -5 0 -6 -6 -10 -12 -9 -7 2 -12 -3
-10 -10 1 -8 -2 -11 -9 -6 -7 4 -18 -1 -26 -11 -7 -11 -13 -16 -13 -12 0 9
-93 -43 -102 -57 -4 -6 -8 -7 -8 -3 0 5 -12 0 -28 -10 -15 -11 -40 -24 -55
-31 -17 -7 -25 -17 -21 -24 5 -7 2 -9 -9 -5 -9 3 -27 -3 -41 -14 -14 -11 -26
-17 -26 -13 0 4 -8 0 -18 -9 -10 -10 -22 -14 -25 -11 -4 4 -9 -1 -13 -10 -3
-9 -15 -16 -25 -16 -22 0 -24 -10 -7 -30 11 -12 10 -12 -2 -3 -20 14 -48 13
-54 -4 -3 -7 -10 -13 -17 -13 -6 0 -24 -9 -40 -21 -16 -11 -29 -17 -29 -12 0
4 -5 0 -11 -10 -6 -9 -14 -15 -20 -12 -5 4 -9 1 -9 -5 0 -6 -4 -9 -9 -5 -5 3
-15 -1 -23 -8 -7 -7 -35 -24 -63 -38 -27 -13 -51 -27 -53 -31 -2 -4 -23 -17
-48 -27 -24 -11 -44 -24 -44 -30 0 -6 -8 -7 -17 -4 -12 5 -15 2 -11 -9 4 -9 1
-15 -5 -14 -7 0 -13 -3 -14 -8 -1 -5 -7 -12 -14 -17 -17 -10 -21 -626 -5 -648
7 -9 7 -12 1 -9 -14 9 -14 -2684 0 -2694 7 -5 7 -8 0 -8 -13 0 -13 -229 0
-250 5 -7 4 -11 -1 -7 -6 3 -9 -53 -9 -141 0 -119 3 -149 15 -160 13 -11 13
-11 0 -7 -13 5 -15 -85 -15 -768 0 -654 2 -777 14 -791 12 -14 12 -17 1 -14
-21 5 -21 -522 -1 -565 15 -30 77 -64 130 -71 14 -2 34 -7 43 -10 9 -4 22 -8
30 -10 7 -1 19 -5 26 -10 7 -4 19 -2 28 5 12 10 15 10 12 0 -2 -7 7 -17 20
-22 14 -5 22 -5 22 2 0 6 7 3 16 -6 9 -9 23 -14 30 -11 8 3 14 1 14 -4 0 -6
11 -10 24 -10 14 0 28 -5 32 -11 4 -8 9 -7 15 2 7 11 9 11 9 1 0 -7 5 -10 10
-7 6 3 10 1 10 -6 0 -7 3 -9 7 -6 3 4 12 2 19 -4 7 -6 26 -11 43 -11 17 -1 31
-5 31 -10 0 -4 10 -8 23 -8 13 0 29 -6 35 -12 10 -10 15 -10 21 0 6 11 10 10
15 -3 3 -9 12 -15 20 -12 7 3 17 2 22 -3 5 -5 20 -11 34 -14 14 -2 50 -12 80
-22 30 -9 62 -18 70 -19 8 -2 15 -4 15 -5 0 -1 8 -3 18 -6 30 -7 41 -11 60
-19 10 -4 31 -8 46 -9 16 0 27 -4 25 -8 -3 -5 3 -9 13 -10 10 0 23 -2 30 -2 6
-1 15 -5 19 -9 4 -4 17 -7 29 -7 12 0 25 -3 29 -7 3 -4 12 -8 19 -10 13 -2 86
-22 102 -27 6 -2 18 -6 28 -11 10 -4 20 -5 24 -2 3 3 12 -1 20 -9 12 -12 18
-12 31 -2 12 10 14 10 8 1 -4 -8 -1 -13 8 -14 20 -2 26 -4 48 -13 10 -5 29 -9
43 -10 14 0 25 -4 25 -7 0 -5 8 -7 49 -11 11 -1 17 -6 15 -10 -3 -4 6 -8 21
-8 14 0 33 -4 43 -9 23 -12 99 -34 117 -34 8 0 15 -3 15 -7 0 -3 9 -6 19 -7
11 -1 40 -9 66 -17 26 -9 51 -14 56 -11 5 4 9 2 9 -3 0 -9 25 -17 85 -28 11
-3 27 -7 35 -11 16 -7 25 -9 55 -17 11 -3 34 -9 52 -15 17 -5 34 -7 37 -3 3 3
6 1 6 -5 0 -6 9 -13 20 -16 13 -3 18 -1 13 6 -4 7 -1 7 9 -1 20 -16 144 -52
152 -44 3 3 6 1 6 -4 0 -9 19 -14 67 -18 11 0 19 -4 16 -8 -2 -5 3 -9 11 -9
18 -2 24 -3 46 -11 30 -12 115 -32 123 -30 4 1 7 -2 7 -6 0 -5 6 -9 13 -9 6 0
49 -12 94 -26 46 -14 92 -24 103 -22 11 2 18 0 15 -6 -4 -5 -3 -9 2 -10 11 -1
28 -5 98 -25 33 -9 67 -18 75 -18 9 -1 20 -4 25 -7 6 -3 30 -11 55 -18 25 -8
52 -16 60 -19 23 -8 34 -11 50 -14 8 -2 20 -7 26 -11 7 -4 28 -8 47 -9 19 -2
33 -5 31 -7 -4 -4 66 -27 106 -35 8 -1 22 -5 30 -9 44 -17 132 -37 142 -31 7
4 8 3 4 -4 -5 -8 1 -12 16 -12 13 0 28 -4 34 -10 5 -5 24 -10 42 -12 17 -1 32
-7 32 -12 0 -5 3 -6 7 -3 3 4 12 2 18 -3 7 -6 24 -11 39 -12 14 -1 26 -5 26
-9 0 -4 8 -6 17 -5 9 2 39 -6 66 -16 38 -15 52 -16 63 -7 12 10 13 8 8 -7 -4
-10 -4 -16 1 -12 4 4 14 3 21 -3 8 -6 20 -9 28 -6 7 3 19 0 25 -6 6 -6 21 -12
33 -15 39 -6 43 -7 56 -15 7 -5 12 -3 12 3 0 7 7 5 16 -4 14 -14 75 -30 98
-26 5 1 12 -3 16 -9 3 -7 21 -13 38 -14 18 -1 32 -6 32 -10 0 -5 4 -6 9 -2 5
3 13 0 16 -6 4 -5 13 -8 20 -5 7 2 16 2 19 -2 7 -6 30 -12 54 -14 6 -1 12 -5
12 -9 0 -3 12 -9 28 -11 15 -3 36 -9 46 -13 15 -7 18 -5 12 6 -4 8 -1 6 7 -3
8 -10 17 -15 20 -11 4 3 12 1 20 -5 7 -6 24 -13 37 -15 14 -2 36 -9 50 -14 14
-6 33 -9 43 -7 9 1 17 -1 17 -5 0 -4 7 -8 15 -9 8 -1 22 -3 30 -4 8 -1 15 -4
15 -8 0 -4 6 -7 13 -8 6 0 38 -8 70 -17 32 -9 63 -13 69 -9 6 4 8 3 5 -3 -8
-13 39 -27 55 -17 7 4 8 3 4 -4 -7 -11 17 -16 61 -15 7 1 10 -3 7 -8 -3 -5 2
-10 10 -10 19 -2 19 -2 70 -17 22 -6 43 -9 47 -7 4 3 9 1 11 -5 1 -5 15 -11
31 -12 15 -1 27 -5 27 -8 0 -18 101 -2 120 19 3 3 35 22 72 41 38 19 68 38 68
41 0 6 23 15 44 17 5 0 12 4 15 9 3 4 23 17 44 28 20 11 37 23 37 26 0 4 14
10 31 14 21 5 29 11 25 21 -3 9 -1 12 4 9 12 -7 70 16 70 27 0 5 7 8 15 8 8 0
24 9 35 20 11 11 21 19 23 18 6 -4 77 35 77 43 0 5 3 8 8 7 4 -1 31 10 60 26
48 24 52 29 40 44 -12 15 -11 16 5 3 14 -11 20 -11 32 -1 8 7 15 9 15 4 0 -5
7 0 15 10 8 11 15 16 15 11 0 -5 7 0 15 11 8 10 15 16 15 11 0 -9 107 49 135
74 19 17 24 19 45 19 6 0 10 7 10 15 0 9 6 12 15 8 9 -3 23 1 33 9 9 8 25 18
36 22 12 4 16 12 11 24 -5 13 -3 14 6 5 12 -12 72 15 138 65 19 14 31 19 26
11 -5 -9 -1 -7 12 3 11 10 25 18 31 18 7 0 12 3 12 8 0 4 23 17 50 30 30 14
48 28 44 34 -4 7 -2 8 4 4 20 -12 34 4 20 22 -12 15 -11 16 4 4 15 -12 24 -10
67 14 27 16 47 32 44 38 -3 5 -1 6 5 3 17 -11 44 4 37 21 -4 11 -2 12 7 4 10
-8 20 -6 38 8 14 11 30 20 37 20 7 0 16 8 22 18 5 9 12 16 15 14 11 -5 67 29
61 37 -3 5 5 7 17 3 16 -4 19 -2 13 8 -5 9 -4 11 3 6 15 -9 55 18 44 29 -4 5
-2 5 4 2 12 -7 84 28 96 47 5 6 8 7 8 1 0 -5 7 -1 15 9 8 11 15 16 15 12 0 -4
22 5 50 20 43 23 48 29 37 43 -10 14 -10 14 4 3 14 -10 23 -9 55 10 22 12 41
26 42 30 2 5 8 6 13 2 5 -3 9 0 9 6 0 6 4 9 8 6 5 -3 20 5 33 17 13 12 24 20
24 17 0 -2 35 15 78 39 46 25 75 47 71 53 -4 6 -2 8 4 4 12 -7 62 13 62 26 0
4 3 7 8 6 4 -1 19 5 34 12 24 11 26 16 15 29 -11 14 -10 14 6 2 12 -9 21 -10
30 -3 6 5 39 24 72 42 33 17 65 38 71 46 6 7 13 11 16 9 3 -3 20 5 39 18 19
13 42 26 52 30 10 4 16 11 13 16 -3 5 3 7 14 4 12 -3 20 0 20 6 0 7 5 9 10 6
6 -3 14 4 19 17 6 13 10 17 10 10 1 -10 5 -10 22 0 72 43 118 70 147 83 30 14
32 18 20 33 -12 15 -11 16 4 4 14 -12 22 -11 50 5 18 10 35 20 38 23 3 3 19
12 35 20 17 8 32 17 35 20 3 3 19 12 35 20 17 8 36 21 43 27 7 7 20 13 28 13
8 0 14 5 14 11 0 5 4 8 9 4 5 -3 16 2 24 10 9 8 21 15 27 15 6 0 8 4 5 10 -3
5 0 7 8 4 8 -3 18 -1 21 4 3 5 30 22 61 37 30 16 55 32 55 36 0 4 11 10 25 13
16 4 23 11 19 18 -4 7 -3 8 4 4 7 -4 41 9 78 30 49 27 64 40 59 53 -5 12 -3
13 6 4 9 -9 17 -8 36 4 41 27 66 98 41 114 -9 6 -9 9 -1 9 16 0 16 1009 -1
1029 -8 12 -8 13 2 7 9 -5 12 2 12 26 0 19 -6 40 -12 47 -10 11 -10 12 -1 7
10 -5 12 4 11 33 -1 26 -5 38 -12 34 -6 -4 -5 0 1 8 17 21 16 242 -1 232 -8
-5 -8 -3 0 8 16 20 16 481 0 472 -7 -4 -7 -2 1 8 16 20 16 722 -1 712 -6 -4
-6 -1 1 8 17 21 16 242 -1 232 -7 -4 -7 -1 1 8 14 18 14 58 -1 78 -8 11 -8 13
1 8 16 -10 16 452 -1 472 -8 11 -8 13 1 8 16 -10 16 572 -1 592 -8 11 -8 13 1
7 17 -10 16 812 -1 833 -8 11 -8 13 2 7 17 -10 17 55 0 73 -9 9 -9 12 -1 7 8
-5 11 34 11 154 0 116 -3 158 -12 153 -6 -3 -6 0 2 8 6 7 12 25 12 39 0 14 -6
32 -12 39 -9 10 -9 12 -1 7 19 -10 13 615 -6 638 -8 9 -16 14 -19 11 -3 -2
-10 2 -16 10 -10 14 -41 25 -73 27 -7 1 -13 4 -13 8 0 4 -6 7 -12 8 -7 1 -24
3 -38 4 -14 2 -28 6 -31 10 -3 5 -17 9 -32 10 -15 1 -27 6 -27 10 0 4 -13 8
-29 8 -17 0 -33 5 -36 11 -4 6 -13 8 -21 5 -8 -3 -14 -1 -14 5 0 6 -6 9 -14 6
-8 -3 -17 -3 -20 1 -4 3 -13 7 -21 8 -7 1 -31 8 -52 15 -21 7 -44 12 -50 11
-7 -2 -13 2 -13 8 0 6 -4 9 -9 5 -5 -3 -12 -1 -16 4 -3 6 -12 8 -20 4 -8 -3
-15 -1 -15 3 0 8 -16 12 -72 17 -9 1 -15 4 -13 7 2 4 -25 13 -60 20 -36 8 -65
17 -65 20 0 4 -6 7 -12 7 -22 1 -62 11 -90 22 -16 6 -28 8 -28 5 0 -4 -6 -2
-13 4 -7 6 -26 12 -42 14 -17 2 -33 6 -36 10 -3 5 -17 9 -32 10 -15 1 -27 5
-27 8 0 3 -12 7 -27 8 -15 1 -29 5 -32 10 -3 4 -15 8 -26 10 -11 2 -42 10 -68
18 -26 9 -55 13 -63 10 -8 -3 -12 -2 -9 4 6 10 -7 14 -32 11 -7 -1 -13 3 -13
9 0 6 -3 9 -7 7 -5 -3 -19 0 -33 5 -27 12 -63 19 -97 22 -12 0 -19 3 -17 5 6
6 -66 30 -98 33 -16 1 -28 6 -28 11 0 4 -4 6 -8 3 -4 -2 -26 3 -48 13 -22 10
-52 17 -67 15 -15 -1 -25 1 -22 6 10 16 -20 17 -33 1 -11 -15 -12 -15 -7 0 5
12 -8 20 -60 34 -36 9 -73 18 -83 19 -9 0 -20 4 -23 8 -3 5 -17 9 -32 10 -15
1 -27 5 -27 9 0 3 -6 6 -12 7 -40 5 -55 9 -72 19 -10 6 -27 8 -37 6 -11 -3
-19 0 -19 6 0 6 -11 11 -25 11 -14 0 -25 4 -25 10 0 5 -6 7 -14 4 -8 -3 -17 0
-21 5 -3 6 -11 9 -16 5 -5 -3 -16 -1 -23 5 -7 6 -26 12 -42 13 -16 1 -31 5
-34 9 -3 4 -18 9 -35 10 -16 2 -32 7 -35 11 -3 4 -17 8 -32 10 -15 2 -30 7
-34 11 -4 4 -17 7 -29 7 -11 0 -27 6 -34 13 -11 10 -12 9 -6 -3 8 -13 6 -13
-7 -2 -9 7 -29 15 -45 18 -15 3 -29 9 -31 14 -2 4 -11 6 -21 3 -10 -3 -22 0
-25 6 -4 6 -20 11 -37 11 -16 0 -29 4 -29 9 0 6 -8 8 -17 7 -10 -2 -29 1 -43
7 -29 12 -50 18 -67 19 -7 1 -13 4 -13 7 0 4 -12 8 -26 9 -15 1 -34 8 -42 15
-13 10 -14 9 -8 -1 4 -7 -7 -4 -27 7 -25 14 -38 16 -52 9 -13 -8 -16 -7 -11 1
7 10 -8 15 -41 14 -7 -1 -13 3 -13 8 0 5 -9 9 -20 9 -11 0 -20 5 -20 11 0 8
-4 8 -14 0 -9 -8 -15 -8 -18 -2 -1 6 -15 12 -30 13 -16 1 -28 6 -28 11 0 5 -6
7 -12 4 -7 -2 -25 2 -39 9 -15 7 -29 10 -33 7 -3 -4 -6 -1 -6 6 0 7 -4 9 -10
6 -5 -3 -22 0 -37 8 -15 7 -36 12 -47 9 -10 -2 -16 0 -13 5 3 5 -3 9 -13 10
-10 1 -51 12 -92 24 -40 12 -79 22 -85 22 -7 0 -13 5 -13 10 0 5 -8 3 -17 -4
-11 -10 -14 -10 -9 -1 5 8 1 12 -11 12 -11 0 -24 5 -31 12 -9 9 -12 9 -12 -2
0 -12 -2 -12 -9 -2 -4 7 -18 14 -29 15 -12 1 -22 4 -22 7 0 3 -10 6 -22 7 -11
1 -25 8 -29 15 -7 10 -9 11 -9 0 0 -10 -5 -10 -21 -2 -11 6 -25 9 -32 7 -7 -2
-16 2 -22 9 -5 7 -23 16 -40 18 -16 3 -43 10 -60 14 -16 5 -36 7 -44 4 -8 -3
-11 0 -7 7 5 7 -1 11 -13 11 -30 0 -27 -1 -65 15 -18 8 -36 11 -40 8 -3 -4 -6
-2 -6 3 0 5 -12 11 -27 12 -15 1 -31 6 -36 11 -5 5 -16 7 -23 4 -8 -3 -14 0
-14 7 0 6 -4 8 -10 5 -5 -3 -16 -3 -22 2 -7 4 -20 9 -28 11 -25 5 -45 10 -45
12 0 2 -37 9 -62 12 -7 1 -13 5 -13 10 0 5 -4 6 -10 3 -5 -3 -10 0 -10 7 0 9
-3 9 -10 -2 -6 -10 -10 -11 -10 -3 0 7 -3 12 -7 12 -5 -1 -10 -1 -13 1 -3 1
-16 3 -29 6 -14 2 -31 10 -40 17 -12 10 -13 9 -7 -1 4 -7 -7 -4 -27 7 -25 14
-38 16 -52 9 -13 -8 -16 -7 -11 1 5 7 -1 11 -13 11 -12 0 -21 5 -21 12 0 9 -3
9 -11 1 -8 -8 -19 -6 -42 7 -25 15 -34 17 -46 7 -10 -8 -13 -8 -8 -1 8 13 -19
27 -34 18 -5 -3 -9 0 -9 6 0 6 -4 9 -9 5 -5 -3 -12 -1 -16 5 -4 6 -11 8 -16 4
-5 -3 -16 0 -24 6 -8 7 -21 10 -29 7 -8 -3 -16 -1 -18 5 -2 6 -13 13 -24 14
-10 1 -28 4 -39 7 -11 3 -33 8 -50 12 -16 4 -34 10 -40 14 -5 3 -21 7 -35 9
-14 2 -26 7 -28 12 -2 5 -10 6 -18 3 -8 -3 -14 0 -14 7 0 10 -3 10 -14 1 -11
-9 -15 -9 -18 0 -2 7 -11 13 -19 15 -80 14 -84 14 -161 -24z m77 -102 c3 -5 1
-10 -4 -10 -6 0 -11 5 -11 10 0 6 2 10 4 10 3 0 8 -4 11 -10z m2118 -575 c-3
-9 -8 -14 -10 -11 -3 3 -2 9 2 15 9 16 15 13 8 -4z m1362 -384 c3 -5 2 -12 -3
-15 -5 -3 -9 1 -9 9 0 17 3 19 12 6z m-5594 -158 c13 -16 12 -17 -3 -4 -10 7
-18 15 -18 17 0 8 8 3 21 -13z m6524 -83 c3 -6 -1 -7 -9 -4 -18 7 -21 14 -7
14 6 0 13 -4 16 -10z m-7300 -400 c-3 -5 -12 -10 -18 -10 -7 0 -6 4 3 10 19
12 23 12 15 0z m8288 -155 c-3 -9 -8 -14 -10 -11 -3 3 -2 9 2 15 9 16 15 13 8
-4z m-9196 -320 c0 -8 -4 -12 -9 -9 -5 3 -6 10 -3 15 9 13 12 11 12 -6z m-46
-2492 c13 -16 12 -17 -3 -4 -17 13 -22 21 -14 21 2 0 10 -8 17 -17z m9 -153
c0 -5 -4 -10 -10 -10 -5 0 -10 5 -10 10 0 6 5 10 10 10 6 0 10 -4 10 -10z
m8595 -3079 c3 -5 2 -12 -3 -15 -5 -3 -9 1 -9 9 0 17 3 19 12 6z m-7865 -517
c0 -8 -19 -13 -24 -6 -3 5 1 9 9 9 8 0 15 -2 15 -3z m7104 -2 c3 -5 -1 -9 -9
-9 -8 0 -12 4 -9 9 3 4 7 8 9 8 2 0 6 -4 9 -8z m-517 -237 c0 -8 -4 -12 -9 -9
-5 3 -6 10 -3 15 9 13 12 11 12 -6z m-5477 -129 c0 -2 -8 -10 -17 -17 -16 -13
-17 -12 -4 4 13 16 21 21 21 13z m4770 -270 c0 -2 -8 -10 -17 -17 -16 -13 -17
-12 -4 4 13 16 21 21 21 13z m-3160 -162 c0 -8 -19 -13 -24 -6 -3 5 1 9 9 9 8
0 15 -2 15 -3z m1075 -344 c-3 -5 -12 -10 -18 -10 -7 0 -6 4 3 10 19 12 23 12
15 0z"/>
</g>
</svg>
